<?xml version="1.0" encoding="utf-8"?>
<!-- Svg Vector Icons : http://www.onlinewebfonts.com/icon -->
<!DOCTYPE svg PUBLIC "-//W3C//DTD SVG 1.1//EN" "http://www.w3.org/Graphics/SVG/1.1/DTD/svg11.dtd">
<svg version="1.1" xmlns="http://www.w3.org/2000/svg" xmlns:xlink="http://www.w3.org/1999/xlink" x="0px" y="0px" viewBox="0 0 1000 1000" enable-background="new 0 0 1000 1000" xml:space="preserve">
<metadata> Svg Vector Icons : http://www.onlinewebfonts.com/icon </metadata>
<g><g transform="translate(0.000000,512.000000) scale(0.100000,-0.100000)"><path d="M4791.3,4992.6c-350.5-93.8-635.8-406-697.1-764.2c-46-266.2,61.3-561.1,283.4-773.7c84.3-80.4,122.6-132.1,114.9-153.2c-32.6-101.5-392.6-930.8-406-934.6c-9.6-3.8-258.5,95.8-553.5,220.2l-534.3,226l5.7,143.6c23,473-321.7,900.1-791,980.6c-559.2,95.8-1126.1-471.1-1030.4-1030.4c80.4-469.2,507.5-813.9,980.6-791l143.6,5.7l226-534.3c124.5-294.9,224.1-543.9,220.2-553.5c-3.8-13.4-833.1-373.5-934.6-406c-21.1-7.7-72.8,30.6-153.2,114.9c-212.6,222.2-505.6,329.4-777.6,283.4C399.8,942,32.1,451.8,110.6-7.9C194.9-496.3,685.1-864,1144.8-785.4c193.4,34.5,377.3,134.1,522.8,283.4l120.6,128.3l78.5-30.7c235.6-90,882.9-373.5,886.7-388.8c3.8-9.6-95.8-258.5-220.2-553.5l-226-534.3l-143.6,5.7c-473,23-900.1-321.7-980.6-791c-95.8-559.2,471.1-1126.1,1030.4-1030.4c469.2,80.4,813.9,507.5,791,980.6l-5.7,143.6l526.7,226c289.2,122.5,538.2,222.1,551.6,220.2c21.1-3.8,369.6-787.1,415.6-934.6c7.7-21.1-30.6-72.8-114.9-153.2c-149.4-143.6-249-327.5-283.4-520.9c-78.5-459.6,289.2-949.9,777.6-1034.2c461.6-78.5,949.9,289.2,1034.2,781.4c46,266.2-61.3,561.1-283.4,773.7c-84.3,80.4-122.6,132.1-114.9,153.2c46,147.5,394.5,930.8,415.6,934.6c13.4,1.9,262.4-97.7,551.6-220.2l526.7-226l-5.7-143.6c-23-473,321.7-900.1,791-980.6c559.2-95.8,1126.1,471.1,1030.4,1030.4c-80.4,469.2-507.5,813.9-980.6,791l-143.6-5.7l-226,526.7c-122.6,289.2-222.1,538.2-220.2,551.6c3.8,21.1,787.1,369.6,934.6,415.6c21.1,7.6,72.8-30.7,153.2-114.9c212.6-222.2,505.6-329.4,777.6-283.4c486.4,84.2,856.1,574.6,777.5,1030.3c-84.3,492.2-572.6,859.9-1034.2,781.4c-193.4-34.5-377.3-134.1-520.9-283.4c-80.4-84.3-132.1-122.6-153.2-114.9c-147.5,46-930.8,394.5-934.6,415.6c-1.9,13.4,97.7,262.4,220.2,551.6l226,526.7l143.6-5.7c473-23,900.1,321.7,980.6,791c95.8,559.2-471.1,1126.1-1030.4,1030.4c-469.2-80.4-813.9-507.5-791-980.6l5.7-143.6l-534.3-226c-294.9-124.5-543.9-224.1-553.5-220.2c-15.3,3.8-298.8,651.2-388.8,886.7l-30.6,78.5l128.3,120.7c222.2,214.5,329.4,507.5,283.4,775.6C5815.9,4755.1,5277.7,5124.8,4791.3,4992.6z M5277.7,4659.4c118.7-57.5,218.3-157,277.7-277.7c40.2-82.4,47.9-122.6,46-277.7c0-206.8-38.3-312.2-157-436.7l-65.1-70.9l-124.5,296.9c-67,162.8-141.7,312.2-162.8,331.3c-21.1,17.2-63.2,32.6-91.9,32.6s-70.9-15.3-91.9-32.6c-21.1-19.2-95.8-168.5-162.8-331.3l-124.5-296.9l-65.1,70.9c-99.6,105.3-153.2,233.6-164.7,392.6c-19.2,296.9,128.3,528.6,398.4,626.3C4913.8,4732.2,5151.3,4718.8,5277.7,4659.4z M5053.6,3586.9l40.2-95.8H5000h-93.8l40.2,95.8c21.1,53.6,46,95.8,53.6,95.8C5007.7,3682.6,5032.6,3640.5,5053.6,3586.9z M2293.9,3613.7c254.7-86.2,419.4-323.7,404.1-576.5l-5.7-95.8L2405,3064c-157.1,65.1-306.4,120.7-329.4,120.7c-59.4,0-139.8-80.4-139.8-139.8c0-23,55.5-172.4,120.7-329.4l122.6-287.3l-95.8-5.7c-181.9-11.5-400.3,93.8-496,241.3c-147.5,222.2-147.5,513.3,0,735.4C1721.2,3602.2,2043,3698,2293.9,3613.7z M8188.8,3586.9c331.3-159,438.6-599.4,226-923.1c-97.7-147.5-316-252.8-497.9-241.3l-95.8,5.7l120.6,287.3c67,159,122.6,306.4,122.6,331.3c0,57.5-80.4,137.9-137.9,137.9c-24.9,0-172.4-55.5-331.3-122.6l-287.3-120.7l-5.7,95.8c-15.3,250.9,147.5,484.5,398.3,576.5C7824.9,3659.7,8062.4,3646.3,8188.8,3586.9z M5415.6,2725.1c109.2-256.6,195.3-475,191.5-484.5c-5.8-21.1-565-262.4-607.1-262.4c-30.6,0-574.6,226-601.4,250.9c-15.3,13.4,155.1,444.3,342.8,869.5l42.1,95.8h218.3l216.4-1.9L5415.6,2725.1z M2527.5,2681l67-28.7l-63.2-63.2l-63.2-63.2l-28.7,67c-65.1,153.2-65.1,151.3-19.2,132.1C2443.3,2717.4,2491.1,2696.3,2527.5,2681z M7606.6,2702.1c-9.6-24.9-30.6-72.8-46-109.2l-28.7-67l-63.2,63.2l-63.2,63.2l105.3,46c57.5,24.9,105.3,44,107.3,46C7620,2744.2,7616.1,2725.1,7606.6,2702.1z M3408.5,2311.4c291.1-122.6,536.2-229.8,545.8-239.4c15.3-13.4-189.6-532.4-247.1-622.4c-30.6-47.9-635.8-308.3-658.8-283.4c-15.3,15.3-461.6,1066.7-461.6,1084c0,15.3,258.5,277.7,275.8,281.5C2870.3,2531.6,3115.5,2434,3408.5,2311.4z M7275.2,2395.6c76.6-74.7,137.9-139.8,137.9-145.5c0-17.2-446.2-1068.7-461.5-1084c-13.4-15.3-532.4,191.5-622.4,247.1c-23,15.3-90,145.6-170.5,337.1c-109.2,256.6-126.4,314.1-103.4,327.5c30.7,21.1,1055.3,453.9,1072.5,455.8C7133.5,2533.5,7200.6,2472.3,7275.2,2395.6z M4350.8,1913c36.4-15.3,107.3-46,160.9-68.9l95.8-40.2l-218.3-93.8c-316-137.9-296.9-136-241.3-11.5c24.9,57.5,59.4,136,74.7,174.3C4255,1947.5,4260.8,1951.3,4350.8,1913z M5817.8,1779c34.5-84.3,61.3-159,59.4-166.6c-3.8-7.7-113,30.6-245.1,88.1l-239.4,101.5l114.9,49.8c63.2,26.8,132.1,57.5,153.2,69C5729.7,1951.3,5752.7,1932.2,5817.8,1779z M5517.1,1420.8c279.6-118.7,520.9-227.9,538.2-245.1c17.2-17.2,128.3-260.5,247.1-542l214.5-511.3l-214.5-513.3c-118.7-283.4-229.8-526.7-247.1-543.9c-17.2-17.2-260.5-128.3-543.9-247l-513.3-214.5l-511.3,214.5c-281.5,118.7-524.8,229.8-542,247c-17.2,17.2-128.3,260.5-247.1,542l-214.5,513.3l224.1,534.3l226,532.4l519,222.2c285.4,120.7,528.6,222.2,538.2,222.2C5001.9,1633.4,5237.5,1537.7,5517.1,1420.8z M3421.9,758.2L3316.6,513l-40.2,95.8c-84.3,191.5-99.6,241.3-88.1,254.7c17.2,17.2,325.6,153.2,333.2,145.6C3525.3,1007.2,3481.3,894.2,3421.9,758.2z M6649,942c78.5-32.5,149.4-67,159-76.6c15.3-13.4-86.2-291.1-120.7-329.4c-7.6-7.7-44,61.3-82.3,153.2c-38.3,93.8-82.4,201.1-99.6,241.3c-17.2,38.3-23,70.9-13.4,70.9C6501.5,1001.4,6572.4,974.6,6649,942z M1290.3,675.8c51.7-24.9,124.5-74.7,162.8-111.1l70.9-65.1l-296.9-124.5c-162.8-67-312.2-141.7-329.4-162.8c-19.2-21.1-34.5-63.2-34.5-91.9s15.3-70.9,34.5-91.9c17.2-21.1,166.6-95.8,329.4-162.8L1524-258.8l-70.9-65.1c-124.5-118.7-229.8-157.1-436.7-157.1c-155.1-1.9-195.4,5.7-277.7,46c-201.1,99.6-316,275.8-331.3,511.4C388.3,373.2,535.8,605,805.8,702.6C930.3,746.7,1167.8,735.2,1290.3,675.8z M3019.7,436.4c67-157,122.6-300.7,122.6-316c0-42.1-241.3-601.4-262.4-607.1c-9.6-3.8-227.9,82.4-486.5,191.5L1928.1-97.9v218.3v220.2L2385.8,536c252.8,107.2,471.1,193.4,486.5,191.5C2885.7,725.6,2952.7,595.4,3019.7,436.4z M7614.2,536L8072,340.7V120.4V-99.8l-467.3-197.3c-256.6-107.3-475-193.4-484.5-189.6c-21.1,5.7-262.4,565-262.4,607.1c0,15.3,44,132.1,97.7,258.5c53.6,126.4,109.2,258.5,122.6,293c15.3,32.6,38.3,61.3,51.7,59.4C7143.1,731.4,7361.4,643.3,7614.2,536z M9261.3,675.8c118.7-57.5,218.3-157.1,277.7-277.7c40.2-82.3,47.9-122.6,46-277.7c0-208.8-40.2-319.8-160.9-440.5c-120.7-120.7-231.7-160.9-440.5-160.9c-206.8-1.9-308.3,34.5-436.7,157.1l-70.9,65.1l304.5,128.3c166.6,70.9,316,145.6,329.4,164.7c36.4,49.8,32.6,132.1-5.7,178.1c-19.2,21.1-164.7,93.8-325.6,160.9c-252.8,105.3-287.3,124.5-272,153.2c26.8,47.9,166.6,139.8,266.2,176.2C8897.4,748.6,9134.9,735.2,9261.3,675.8z M1629.3,122.3V26.6l-95.8,40.2c-51.7,21.1-95.8,46-95.8,53.6c0,11.5,128.3,74.7,187.7,93.8C1627.4,216.2,1629.3,174.1,1629.3,122.3z M8562.2,120.4c0-7.7-42.1-32.6-95.8-53.6l-95.8-40.2v93.9v93.8l95.8-40.2C8520.1,153,8562.2,128.1,8562.2,120.4z M3508.1-756.7c-17.2-5.8-291.1,107.2-316,130.2c-17.2,17.2-1.9,57.5,84.3,258.5l40.2,95.8L3420-511.6C3477.5-643.7,3515.8-752.9,3508.1-756.7z M6760.1-452.2c34.5-78.5,57.5-153.2,53.6-164.7c-9.6-21.1-316-153.2-327.5-141.7c-5.7,3.8,36.4,113,90,241.3c55.5,128.3,105.3,227.9,111.1,220.2C6695-304.7,6727.5-373.7,6760.1-452.2z M3372.1-1038.2c160.9-69,304.5-134.1,316-143.6c38.3-30.7,283.4-633.9,266.2-649.2c-15.3-15.3-1066.7-461.6-1084-461.6c-11.5,0-283.4,272-283.4,283.4c0,3.8,90,220.2,199.2,480.7c109.2,258.5,212.6,503.7,227.9,543.9c17.2,38.3,38.3,70.9,47.9,70.9C3069.5-913.8,3209.3-969.3,3372.1-1038.2z M7175.6-1440.4c120.7-283.4,222.2-530.5,227.9-545.8c5.7-21.1-38.3-80.4-128.3-168.5c-74.7-76.6-139.8-137.9-143.6-137.9c-17.2,0-1070.6,448.1-1085.9,461.6c-17.2,15.3,227.9,616.7,266.2,649.2c36.4,30.6,591.8,266.2,618.6,262.4C6945.8-921.4,7055-1153.2,7175.6-1440.4z M4431.2-1484.5c91.9-38.3,160.9-74.7,153.2-82.4c-38.3-34.5-316-136-329.4-120.7c-21.1,21.1-136,291.1-136,316c0,9.6,32.6,3.8,72.8-13.4C4230.1-1402.1,4337.4-1446.2,4431.2-1484.5z M5821.6-1528.5c-32.5-78.5-67-149.4-74.7-159c-17.2-17.2-57.5-1.9-258.6,84.3l-95.8,40.2l239.4,103.4c132.1,57.5,241.3,95.8,245.1,88.1C5879.1-1379.1,5854.2-1450,5821.6-1528.5z M5316-1859.9c157.1-67,289.2-130.2,291.1-139.8c3.8-9.6-82.4-227.9-189.6-484.5l-197.3-467.3H5000h-220.2l-195.4,457.7c-107.2,252.8-193.4,471.1-191.5,486.4c3.8,28.7,530.5,264.3,597.5,268.1C5011.5-1737.3,5157.1-1792.8,5316-1859.9z M2096.6-2382.7c-47.9-114.9-103.4-245.1-124.5-291.1c-19.2-46-36.4-103.4-36.4-130.2c0-57.5,80.4-139.8,137.9-139.8c24.9,0,174.3,55.5,331.3,122.6l287.3,120.7l5.7-95.8c11.5-180-90-392.6-235.6-492.2c-124.5-86.2-258.5-120.6-417.5-111.1c-327.5,23-542,237.5-565,565c-24.9,371.5,229.8,653.1,593.7,656.9h109.2L2096.6-2382.7z M8188.8-2237.1c118.7-55.5,218.3-155.1,277.7-275.8c38.3-80.4,46-124.5,46-277.7c1.9-155.1-5.8-195.4-46-277.7c-59.4-120.6-157.1-218.3-277.7-277.7c-82.4-40.2-122.6-47.9-277.7-46c-153.2,0-197.3,7.7-277.7,46c-199.2,97.7-316,275.8-331.3,511.4l-9.6,139.8l208.7-88.1c114.9-47.9,247.1-103.4,293-124.5c111.1-47.9,166.6-46,222.2,11.5c57.5,55.5,59.4,111.1,11.5,222.1c-21.1,46-76.6,178.1-124.5,293l-88.1,208.8l139.8-9.6C8045.1-2187.3,8125.6-2206.5,8188.8-2237.1z M2556.3-2373.1c32.6-46,30.6-46-137.9-113l-42.1-17.2l30.6,72.8c17.2,38.3,34.5,86.2,40.2,103.4C2458.6-2286.9,2512.2-2308,2556.3-2373.1z M7604.6-2459.3c19.2-46,21.1-46-132.1,19.2l-67,28.7l63.2,63.2l63.2,63.2l28.7-67C7575.9-2388.4,7597-2436.3,7604.6-2459.3z M5053.6-3346c-21.1-51.7-46-95.8-53.6-95.8c-7.7,0-32.6,44.1-53.6,95.8l-40.2,95.8h93.8h93.8L5053.6-3346z M4908.1-3981.9c46-40.2,128.3-44,178.1-7.6c19.2,13.4,93.8,162.8,164.7,329.4l128.3,304.5l65.1-70.9c122.6-128.3,159-229.8,157-436.7c0-208.8-40.2-319.8-160.9-440.5c-120.7-120.6-231.7-160.9-440.5-160.9c-155.1-1.9-195.4,5.8-277.7,46c-120.7,59.4-218.3,157-277.7,277.7c-40.2,80.4-47.9,122.6-47.9,277.7c0,206.8,38.3,310.3,159,436.7l65.1,70.9l124.5-296.9C4812.3-3815.2,4887-3964.6,4908.1-3981.9z"/><path d="M4540.4,733.3V580.1h153.2h153.2v153.2v153.2h-153.2h-153.2V733.3z"/><path d="M5153.2,733.3V580.1h153.2h153.2v153.2v153.2h-153.2h-153.2V733.3z"/><path d="M4233.9,120.4V-32.8h153.2h153.2v153.2v153.2h-153.2h-153.2V120.4z"/><path d="M4846.8,120.4V-32.8H5000h153.2v153.2v153.2H5000h-153.2V120.4z"/><path d="M5459.7,120.4V-32.8h153.2h153.2v153.2v153.2h-153.2h-153.2V120.4z"/><path d="M4540.4-492.4v-153.2h153.2h153.2v153.2v153.2h-153.2h-153.2V-492.4z"/><path d="M5153.2-492.4v-153.2h153.2h153.2v153.2v153.2h-153.2h-153.2V-492.4z"/></g></g>
</svg>